G75*
%MOIN*%
%OFA0B0*%
%FSLAX25Y25*%
%IPPOS*%
%LPD*%
%AMOC8*
5,1,8,0,0,1.08239X$1,22.5*
%
%ADD10C,0.17323*%
%ADD11C,0.07874*%
%ADD12C,0.06600*%
D10*
X0038402Y0038402D03*
D11*
X0005674Y0038402D02*
X0005684Y0039205D01*
X0005713Y0040008D01*
X0005763Y0040810D01*
X0005832Y0041610D01*
X0005920Y0042408D01*
X0006028Y0043204D01*
X0006156Y0043997D01*
X0006303Y0044787D01*
X0006469Y0045573D01*
X0006655Y0046354D01*
X0006860Y0047131D01*
X0007083Y0047902D01*
X0007326Y0048668D01*
X0007587Y0049428D01*
X0007867Y0050181D01*
X0008165Y0050926D01*
X0008482Y0051665D01*
X0008816Y0052395D01*
X0009169Y0053117D01*
X0009538Y0053830D01*
X0009926Y0054534D01*
X0010330Y0055228D01*
X0010752Y0055911D01*
X0011190Y0056585D01*
X0011644Y0057247D01*
X0012115Y0057898D01*
X0012601Y0058537D01*
X0013103Y0059164D01*
X0013620Y0059779D01*
X0014152Y0060381D01*
X0014699Y0060969D01*
X0015260Y0061544D01*
X0015835Y0062105D01*
X0016423Y0062652D01*
X0017025Y0063184D01*
X0017640Y0063701D01*
X0018267Y0064203D01*
X0018906Y0064689D01*
X0019557Y0065160D01*
X0020219Y0065614D01*
X0020893Y0066052D01*
X0021576Y0066474D01*
X0022270Y0066878D01*
X0022974Y0067266D01*
X0023687Y0067635D01*
X0024409Y0067988D01*
X0025139Y0068322D01*
X0025878Y0068639D01*
X0026623Y0068937D01*
X0027376Y0069217D01*
X0028136Y0069478D01*
X0028902Y0069721D01*
X0029673Y0069944D01*
X0030450Y0070149D01*
X0031231Y0070335D01*
X0032017Y0070501D01*
X0032807Y0070648D01*
X0033600Y0070776D01*
X0034396Y0070884D01*
X0035194Y0070972D01*
X0035994Y0071041D01*
X0036796Y0071091D01*
X0037599Y0071120D01*
X0038402Y0071130D01*
X0039205Y0071120D01*
X0040008Y0071091D01*
X0040810Y0071041D01*
X0041610Y0070972D01*
X0042408Y0070884D01*
X0043204Y0070776D01*
X0043997Y0070648D01*
X0044787Y0070501D01*
X0045573Y0070335D01*
X0046354Y0070149D01*
X0047131Y0069944D01*
X0047902Y0069721D01*
X0048668Y0069478D01*
X0049428Y0069217D01*
X0050181Y0068937D01*
X0050926Y0068639D01*
X0051665Y0068322D01*
X0052395Y0067988D01*
X0053117Y0067635D01*
X0053830Y0067266D01*
X0054534Y0066878D01*
X0055228Y0066474D01*
X0055911Y0066052D01*
X0056585Y0065614D01*
X0057247Y0065160D01*
X0057898Y0064689D01*
X0058537Y0064203D01*
X0059164Y0063701D01*
X0059779Y0063184D01*
X0060381Y0062652D01*
X0060969Y0062105D01*
X0061544Y0061544D01*
X0062105Y0060969D01*
X0062652Y0060381D01*
X0063184Y0059779D01*
X0063701Y0059164D01*
X0064203Y0058537D01*
X0064689Y0057898D01*
X0065160Y0057247D01*
X0065614Y0056585D01*
X0066052Y0055911D01*
X0066474Y0055228D01*
X0066878Y0054534D01*
X0067266Y0053830D01*
X0067635Y0053117D01*
X0067988Y0052395D01*
X0068322Y0051665D01*
X0068639Y0050926D01*
X0068937Y0050181D01*
X0069217Y0049428D01*
X0069478Y0048668D01*
X0069721Y0047902D01*
X0069944Y0047131D01*
X0070149Y0046354D01*
X0070335Y0045573D01*
X0070501Y0044787D01*
X0070648Y0043997D01*
X0070776Y0043204D01*
X0070884Y0042408D01*
X0070972Y0041610D01*
X0071041Y0040810D01*
X0071091Y0040008D01*
X0071120Y0039205D01*
X0071130Y0038402D01*
X0071120Y0037599D01*
X0071091Y0036796D01*
X0071041Y0035994D01*
X0070972Y0035194D01*
X0070884Y0034396D01*
X0070776Y0033600D01*
X0070648Y0032807D01*
X0070501Y0032017D01*
X0070335Y0031231D01*
X0070149Y0030450D01*
X0069944Y0029673D01*
X0069721Y0028902D01*
X0069478Y0028136D01*
X0069217Y0027376D01*
X0068937Y0026623D01*
X0068639Y0025878D01*
X0068322Y0025139D01*
X0067988Y0024409D01*
X0067635Y0023687D01*
X0067266Y0022974D01*
X0066878Y0022270D01*
X0066474Y0021576D01*
X0066052Y0020893D01*
X0065614Y0020219D01*
X0065160Y0019557D01*
X0064689Y0018906D01*
X0064203Y0018267D01*
X0063701Y0017640D01*
X0063184Y0017025D01*
X0062652Y0016423D01*
X0062105Y0015835D01*
X0061544Y0015260D01*
X0060969Y0014699D01*
X0060381Y0014152D01*
X0059779Y0013620D01*
X0059164Y0013103D01*
X0058537Y0012601D01*
X0057898Y0012115D01*
X0057247Y0011644D01*
X0056585Y0011190D01*
X0055911Y0010752D01*
X0055228Y0010330D01*
X0054534Y0009926D01*
X0053830Y0009538D01*
X0053117Y0009169D01*
X0052395Y0008816D01*
X0051665Y0008482D01*
X0050926Y0008165D01*
X0050181Y0007867D01*
X0049428Y0007587D01*
X0048668Y0007326D01*
X0047902Y0007083D01*
X0047131Y0006860D01*
X0046354Y0006655D01*
X0045573Y0006469D01*
X0044787Y0006303D01*
X0043997Y0006156D01*
X0043204Y0006028D01*
X0042408Y0005920D01*
X0041610Y0005832D01*
X0040810Y0005763D01*
X0040008Y0005713D01*
X0039205Y0005684D01*
X0038402Y0005674D01*
X0037599Y0005684D01*
X0036796Y0005713D01*
X0035994Y0005763D01*
X0035194Y0005832D01*
X0034396Y0005920D01*
X0033600Y0006028D01*
X0032807Y0006156D01*
X0032017Y0006303D01*
X0031231Y0006469D01*
X0030450Y0006655D01*
X0029673Y0006860D01*
X0028902Y0007083D01*
X0028136Y0007326D01*
X0027376Y0007587D01*
X0026623Y0007867D01*
X0025878Y0008165D01*
X0025139Y0008482D01*
X0024409Y0008816D01*
X0023687Y0009169D01*
X0022974Y0009538D01*
X0022270Y0009926D01*
X0021576Y0010330D01*
X0020893Y0010752D01*
X0020219Y0011190D01*
X0019557Y0011644D01*
X0018906Y0012115D01*
X0018267Y0012601D01*
X0017640Y0013103D01*
X0017025Y0013620D01*
X0016423Y0014152D01*
X0015835Y0014699D01*
X0015260Y0015260D01*
X0014699Y0015835D01*
X0014152Y0016423D01*
X0013620Y0017025D01*
X0013103Y0017640D01*
X0012601Y0018267D01*
X0012115Y0018906D01*
X0011644Y0019557D01*
X0011190Y0020219D01*
X0010752Y0020893D01*
X0010330Y0021576D01*
X0009926Y0022270D01*
X0009538Y0022974D01*
X0009169Y0023687D01*
X0008816Y0024409D01*
X0008482Y0025139D01*
X0008165Y0025878D01*
X0007867Y0026623D01*
X0007587Y0027376D01*
X0007326Y0028136D01*
X0007083Y0028902D01*
X0006860Y0029673D01*
X0006655Y0030450D01*
X0006469Y0031231D01*
X0006303Y0032017D01*
X0006156Y0032807D01*
X0006028Y0033600D01*
X0005920Y0034396D01*
X0005832Y0035194D01*
X0005763Y0035994D01*
X0005713Y0036796D01*
X0005684Y0037599D01*
X0005674Y0038402D01*
X0015024Y0038402D02*
X0015031Y0038976D01*
X0015052Y0039549D01*
X0015087Y0040122D01*
X0015137Y0040693D01*
X0015200Y0041264D01*
X0015277Y0041832D01*
X0015368Y0042399D01*
X0015473Y0042963D01*
X0015592Y0043524D01*
X0015725Y0044082D01*
X0015871Y0044637D01*
X0016031Y0045188D01*
X0016204Y0045735D01*
X0016391Y0046278D01*
X0016590Y0046816D01*
X0016804Y0047348D01*
X0017030Y0047876D01*
X0017269Y0048397D01*
X0017520Y0048913D01*
X0017784Y0049422D01*
X0018061Y0049925D01*
X0018350Y0050421D01*
X0018651Y0050909D01*
X0018964Y0051390D01*
X0019289Y0051863D01*
X0019625Y0052328D01*
X0019972Y0052785D01*
X0020331Y0053233D01*
X0020700Y0053672D01*
X0021080Y0054102D01*
X0021471Y0054522D01*
X0021871Y0054933D01*
X0022282Y0055333D01*
X0022702Y0055724D01*
X0023132Y0056104D01*
X0023571Y0056473D01*
X0024019Y0056832D01*
X0024476Y0057179D01*
X0024941Y0057515D01*
X0025414Y0057840D01*
X0025895Y0058153D01*
X0026383Y0058454D01*
X0026879Y0058743D01*
X0027382Y0059020D01*
X0027891Y0059284D01*
X0028407Y0059535D01*
X0028928Y0059774D01*
X0029456Y0060000D01*
X0029988Y0060214D01*
X0030526Y0060413D01*
X0031069Y0060600D01*
X0031616Y0060773D01*
X0032167Y0060933D01*
X0032722Y0061079D01*
X0033280Y0061212D01*
X0033841Y0061331D01*
X0034405Y0061436D01*
X0034972Y0061527D01*
X0035540Y0061604D01*
X0036111Y0061667D01*
X0036682Y0061717D01*
X0037255Y0061752D01*
X0037828Y0061773D01*
X0038402Y0061780D01*
X0038976Y0061773D01*
X0039549Y0061752D01*
X0040122Y0061717D01*
X0040693Y0061667D01*
X0041264Y0061604D01*
X0041832Y0061527D01*
X0042399Y0061436D01*
X0042963Y0061331D01*
X0043524Y0061212D01*
X0044082Y0061079D01*
X0044637Y0060933D01*
X0045188Y0060773D01*
X0045735Y0060600D01*
X0046278Y0060413D01*
X0046816Y0060214D01*
X0047348Y0060000D01*
X0047876Y0059774D01*
X0048397Y0059535D01*
X0048913Y0059284D01*
X0049422Y0059020D01*
X0049925Y0058743D01*
X0050421Y0058454D01*
X0050909Y0058153D01*
X0051390Y0057840D01*
X0051863Y0057515D01*
X0052328Y0057179D01*
X0052785Y0056832D01*
X0053233Y0056473D01*
X0053672Y0056104D01*
X0054102Y0055724D01*
X0054522Y0055333D01*
X0054933Y0054933D01*
X0055333Y0054522D01*
X0055724Y0054102D01*
X0056104Y0053672D01*
X0056473Y0053233D01*
X0056832Y0052785D01*
X0057179Y0052328D01*
X0057515Y0051863D01*
X0057840Y0051390D01*
X0058153Y0050909D01*
X0058454Y0050421D01*
X0058743Y0049925D01*
X0059020Y0049422D01*
X0059284Y0048913D01*
X0059535Y0048397D01*
X0059774Y0047876D01*
X0060000Y0047348D01*
X0060214Y0046816D01*
X0060413Y0046278D01*
X0060600Y0045735D01*
X0060773Y0045188D01*
X0060933Y0044637D01*
X0061079Y0044082D01*
X0061212Y0043524D01*
X0061331Y0042963D01*
X0061436Y0042399D01*
X0061527Y0041832D01*
X0061604Y0041264D01*
X0061667Y0040693D01*
X0061717Y0040122D01*
X0061752Y0039549D01*
X0061773Y0038976D01*
X0061780Y0038402D01*
X0061773Y0037828D01*
X0061752Y0037255D01*
X0061717Y0036682D01*
X0061667Y0036111D01*
X0061604Y0035540D01*
X0061527Y0034972D01*
X0061436Y0034405D01*
X0061331Y0033841D01*
X0061212Y0033280D01*
X0061079Y0032722D01*
X0060933Y0032167D01*
X0060773Y0031616D01*
X0060600Y0031069D01*
X0060413Y0030526D01*
X0060214Y0029988D01*
X0060000Y0029456D01*
X0059774Y0028928D01*
X0059535Y0028407D01*
X0059284Y0027891D01*
X0059020Y0027382D01*
X0058743Y0026879D01*
X0058454Y0026383D01*
X0058153Y0025895D01*
X0057840Y0025414D01*
X0057515Y0024941D01*
X0057179Y0024476D01*
X0056832Y0024019D01*
X0056473Y0023571D01*
X0056104Y0023132D01*
X0055724Y0022702D01*
X0055333Y0022282D01*
X0054933Y0021871D01*
X0054522Y0021471D01*
X0054102Y0021080D01*
X0053672Y0020700D01*
X0053233Y0020331D01*
X0052785Y0019972D01*
X0052328Y0019625D01*
X0051863Y0019289D01*
X0051390Y0018964D01*
X0050909Y0018651D01*
X0050421Y0018350D01*
X0049925Y0018061D01*
X0049422Y0017784D01*
X0048913Y0017520D01*
X0048397Y0017269D01*
X0047876Y0017030D01*
X0047348Y0016804D01*
X0046816Y0016590D01*
X0046278Y0016391D01*
X0045735Y0016204D01*
X0045188Y0016031D01*
X0044637Y0015871D01*
X0044082Y0015725D01*
X0043524Y0015592D01*
X0042963Y0015473D01*
X0042399Y0015368D01*
X0041832Y0015277D01*
X0041264Y0015200D01*
X0040693Y0015137D01*
X0040122Y0015087D01*
X0039549Y0015052D01*
X0038976Y0015031D01*
X0038402Y0015024D01*
X0037828Y0015031D01*
X0037255Y0015052D01*
X0036682Y0015087D01*
X0036111Y0015137D01*
X0035540Y0015200D01*
X0034972Y0015277D01*
X0034405Y0015368D01*
X0033841Y0015473D01*
X0033280Y0015592D01*
X0032722Y0015725D01*
X0032167Y0015871D01*
X0031616Y0016031D01*
X0031069Y0016204D01*
X0030526Y0016391D01*
X0029988Y0016590D01*
X0029456Y0016804D01*
X0028928Y0017030D01*
X0028407Y0017269D01*
X0027891Y0017520D01*
X0027382Y0017784D01*
X0026879Y0018061D01*
X0026383Y0018350D01*
X0025895Y0018651D01*
X0025414Y0018964D01*
X0024941Y0019289D01*
X0024476Y0019625D01*
X0024019Y0019972D01*
X0023571Y0020331D01*
X0023132Y0020700D01*
X0022702Y0021080D01*
X0022282Y0021471D01*
X0021871Y0021871D01*
X0021471Y0022282D01*
X0021080Y0022702D01*
X0020700Y0023132D01*
X0020331Y0023571D01*
X0019972Y0024019D01*
X0019625Y0024476D01*
X0019289Y0024941D01*
X0018964Y0025414D01*
X0018651Y0025895D01*
X0018350Y0026383D01*
X0018061Y0026879D01*
X0017784Y0027382D01*
X0017520Y0027891D01*
X0017269Y0028407D01*
X0017030Y0028928D01*
X0016804Y0029456D01*
X0016590Y0029988D01*
X0016391Y0030526D01*
X0016204Y0031069D01*
X0016031Y0031616D01*
X0015871Y0032167D01*
X0015725Y0032722D01*
X0015592Y0033280D01*
X0015473Y0033841D01*
X0015368Y0034405D01*
X0015277Y0034972D01*
X0015200Y0035540D01*
X0015137Y0036111D01*
X0015087Y0036682D01*
X0015052Y0037255D01*
X0015031Y0037828D01*
X0015024Y0038402D01*
X0024374Y0038402D02*
X0024378Y0038746D01*
X0024391Y0039090D01*
X0024412Y0039434D01*
X0024442Y0039777D01*
X0024479Y0040119D01*
X0024526Y0040460D01*
X0024581Y0040800D01*
X0024644Y0041139D01*
X0024715Y0041476D01*
X0024794Y0041811D01*
X0024882Y0042143D01*
X0024978Y0042474D01*
X0025082Y0042802D01*
X0025194Y0043128D01*
X0025314Y0043451D01*
X0025442Y0043770D01*
X0025577Y0044087D01*
X0025721Y0044400D01*
X0025872Y0044709D01*
X0026030Y0045015D01*
X0026196Y0045316D01*
X0026370Y0045614D01*
X0026550Y0045907D01*
X0026738Y0046196D01*
X0026933Y0046479D01*
X0027135Y0046758D01*
X0027343Y0047032D01*
X0027558Y0047301D01*
X0027780Y0047565D01*
X0028008Y0047823D01*
X0028242Y0048075D01*
X0028483Y0048321D01*
X0028729Y0048562D01*
X0028981Y0048796D01*
X0029239Y0049024D01*
X0029503Y0049246D01*
X0029772Y0049461D01*
X0030046Y0049669D01*
X0030325Y0049871D01*
X0030608Y0050066D01*
X0030897Y0050254D01*
X0031190Y0050434D01*
X0031488Y0050608D01*
X0031789Y0050774D01*
X0032095Y0050932D01*
X0032404Y0051083D01*
X0032717Y0051227D01*
X0033034Y0051362D01*
X0033353Y0051490D01*
X0033676Y0051610D01*
X0034002Y0051722D01*
X0034330Y0051826D01*
X0034661Y0051922D01*
X0034993Y0052010D01*
X0035328Y0052089D01*
X0035665Y0052160D01*
X0036004Y0052223D01*
X0036344Y0052278D01*
X0036685Y0052325D01*
X0037027Y0052362D01*
X0037370Y0052392D01*
X0037714Y0052413D01*
X0038058Y0052426D01*
X0038402Y0052430D01*
X0038746Y0052426D01*
X0039090Y0052413D01*
X0039434Y0052392D01*
X0039777Y0052362D01*
X0040119Y0052325D01*
X0040460Y0052278D01*
X0040800Y0052223D01*
X0041139Y0052160D01*
X0041476Y0052089D01*
X0041811Y0052010D01*
X0042143Y0051922D01*
X0042474Y0051826D01*
X0042802Y0051722D01*
X0043128Y0051610D01*
X0043451Y0051490D01*
X0043770Y0051362D01*
X0044087Y0051227D01*
X0044400Y0051083D01*
X0044709Y0050932D01*
X0045015Y0050774D01*
X0045316Y0050608D01*
X0045614Y0050434D01*
X0045907Y0050254D01*
X0046196Y0050066D01*
X0046479Y0049871D01*
X0046758Y0049669D01*
X0047032Y0049461D01*
X0047301Y0049246D01*
X0047565Y0049024D01*
X0047823Y0048796D01*
X0048075Y0048562D01*
X0048321Y0048321D01*
X0048562Y0048075D01*
X0048796Y0047823D01*
X0049024Y0047565D01*
X0049246Y0047301D01*
X0049461Y0047032D01*
X0049669Y0046758D01*
X0049871Y0046479D01*
X0050066Y0046196D01*
X0050254Y0045907D01*
X0050434Y0045614D01*
X0050608Y0045316D01*
X0050774Y0045015D01*
X0050932Y0044709D01*
X0051083Y0044400D01*
X0051227Y0044087D01*
X0051362Y0043770D01*
X0051490Y0043451D01*
X0051610Y0043128D01*
X0051722Y0042802D01*
X0051826Y0042474D01*
X0051922Y0042143D01*
X0052010Y0041811D01*
X0052089Y0041476D01*
X0052160Y0041139D01*
X0052223Y0040800D01*
X0052278Y0040460D01*
X0052325Y0040119D01*
X0052362Y0039777D01*
X0052392Y0039434D01*
X0052413Y0039090D01*
X0052426Y0038746D01*
X0052430Y0038402D01*
X0052426Y0038058D01*
X0052413Y0037714D01*
X0052392Y0037370D01*
X0052362Y0037027D01*
X0052325Y0036685D01*
X0052278Y0036344D01*
X0052223Y0036004D01*
X0052160Y0035665D01*
X0052089Y0035328D01*
X0052010Y0034993D01*
X0051922Y0034661D01*
X0051826Y0034330D01*
X0051722Y0034002D01*
X0051610Y0033676D01*
X0051490Y0033353D01*
X0051362Y0033034D01*
X0051227Y0032717D01*
X0051083Y0032404D01*
X0050932Y0032095D01*
X0050774Y0031789D01*
X0050608Y0031488D01*
X0050434Y0031190D01*
X0050254Y0030897D01*
X0050066Y0030608D01*
X0049871Y0030325D01*
X0049669Y0030046D01*
X0049461Y0029772D01*
X0049246Y0029503D01*
X0049024Y0029239D01*
X0048796Y0028981D01*
X0048562Y0028729D01*
X0048321Y0028483D01*
X0048075Y0028242D01*
X0047823Y0028008D01*
X0047565Y0027780D01*
X0047301Y0027558D01*
X0047032Y0027343D01*
X0046758Y0027135D01*
X0046479Y0026933D01*
X0046196Y0026738D01*
X0045907Y0026550D01*
X0045614Y0026370D01*
X0045316Y0026196D01*
X0045015Y0026030D01*
X0044709Y0025872D01*
X0044400Y0025721D01*
X0044087Y0025577D01*
X0043770Y0025442D01*
X0043451Y0025314D01*
X0043128Y0025194D01*
X0042802Y0025082D01*
X0042474Y0024978D01*
X0042143Y0024882D01*
X0041811Y0024794D01*
X0041476Y0024715D01*
X0041139Y0024644D01*
X0040800Y0024581D01*
X0040460Y0024526D01*
X0040119Y0024479D01*
X0039777Y0024442D01*
X0039434Y0024412D01*
X0039090Y0024391D01*
X0038746Y0024378D01*
X0038402Y0024374D01*
X0038058Y0024378D01*
X0037714Y0024391D01*
X0037370Y0024412D01*
X0037027Y0024442D01*
X0036685Y0024479D01*
X0036344Y0024526D01*
X0036004Y0024581D01*
X0035665Y0024644D01*
X0035328Y0024715D01*
X0034993Y0024794D01*
X0034661Y0024882D01*
X0034330Y0024978D01*
X0034002Y0025082D01*
X0033676Y0025194D01*
X0033353Y0025314D01*
X0033034Y0025442D01*
X0032717Y0025577D01*
X0032404Y0025721D01*
X0032095Y0025872D01*
X0031789Y0026030D01*
X0031488Y0026196D01*
X0031190Y0026370D01*
X0030897Y0026550D01*
X0030608Y0026738D01*
X0030325Y0026933D01*
X0030046Y0027135D01*
X0029772Y0027343D01*
X0029503Y0027558D01*
X0029239Y0027780D01*
X0028981Y0028008D01*
X0028729Y0028242D01*
X0028483Y0028483D01*
X0028242Y0028729D01*
X0028008Y0028981D01*
X0027780Y0029239D01*
X0027558Y0029503D01*
X0027343Y0029772D01*
X0027135Y0030046D01*
X0026933Y0030325D01*
X0026738Y0030608D01*
X0026550Y0030897D01*
X0026370Y0031190D01*
X0026196Y0031488D01*
X0026030Y0031789D01*
X0025872Y0032095D01*
X0025721Y0032404D01*
X0025577Y0032717D01*
X0025442Y0033034D01*
X0025314Y0033353D01*
X0025194Y0033676D01*
X0025082Y0034002D01*
X0024978Y0034330D01*
X0024882Y0034661D01*
X0024794Y0034993D01*
X0024715Y0035328D01*
X0024644Y0035665D01*
X0024581Y0036004D01*
X0024526Y0036344D01*
X0024479Y0036685D01*
X0024442Y0037027D01*
X0024412Y0037370D01*
X0024391Y0037714D01*
X0024378Y0038058D01*
X0024374Y0038402D01*
D12*
X0016803Y0029457D03*
X0033035Y0051358D03*
X0043102Y0039024D03*
X0050925Y0008165D03*
M02*
